<svg clip-rule="evenodd" fill-rule="evenodd" stroke-linejoin="round" stroke-miterlimit="2" viewBox="0 0 560 400" xmlns="http://www.w3.org/2000/svg"><g transform="matrix(.637063 0 0 .637063 83.7509 154.718)"><path d="m368.496 94.206c2.05-6.29 3.699-12.248 4.976-17.88 4.787.872 9.894 1.551 15.333 2.014v63.368h17.789v-79.976h-.043v-.379c-11.713 0-21.698-.929-30.171-2.491 1.995-19.98-1.609-34.721-8.859-44.678-11.541-15.852-31.66-17.693-43.453-7.05-12.049 10.874-11.577 30.718 1.538 45.716 6.779 7.752 16.869 14.433 30.705 19.111-1.117 4.984-2.593 10.391-4.488 16.249l-.006-.002-10.996 32.3-19.91-58.8h-18.811l-19.861 58.75-19.889-58.75h-18.788l27.077 80h23.21l17.672-52.242 17.69 52.242h23.24l14.737-43.615.003.002c.386-1.119.759-2.227 1.12-3.326l.19-.561zm-15.292-69.598c3.721 5.112 6.842 14.415 5.815 29.508-9.698-3.712-16.121-8.395-20.081-12.924-8.637-9.878-5.915-18.284-3.005-20.91 3.165-2.857 11.247-3.948 17.271 4.326zm55.886 12.318c0 6.32-4.898 11.218-11.376 11.218-6.32 0-11.218-4.898-11.218-11.218 0-6.478 4.898-11.218 11.218-11.218 6.478 0 11.376 4.74 11.376 11.218zm95.594 80.3c0 4.582 2.686 7.426 7.268 7.426h1.58v17.064h-5.056c-14.062 0-21.488-7.11-21.488-20.54v-23.736c0-12.324-7.9-20.54-20.066-20.54-12.798 0-21.33 8.374-21.33 20.856v43.952h-17.784v-79.976h17.784v11.218c6.32-8.532 15.642-13.114 27.176-13.114 19.118 0 31.916 12.64 31.916 31.758zm109.95 7.418c-4.74 0-7.426-2.844-7.426-7.426l-.125-88.81h-17.782v45.178c-6.478-8.848-16.346-14.378-28.196-14.378-22.752 0-39.658 16.298-39.658 40.314s16.906 42.186 39.658 42.186c12.324 0 22.564-3.504 29.042-12.984 2.212 8.848 9.477 12.984 20.853 12.984h5v-17.064zm-50.053 0c-14.378 0-24.964-10.902-24.964-25.122s10.586-23.25 24.964-23.25c14.22 0 24.72 9.03 24.72 23.25s-10.5 25.122-24.72 25.122z" fill="#07c"/><g fill="#1f2122" fill-rule="nonzero"><path d="m51.391 77.848v-16.14h-19.592v-21.78h-17.799v15.484c0 4.108-1.676 6.296-5.784 6.296h-8.111v16h13.895v39.062c0 15.958 9.267 24.946 26.805 24.946h10.586v-16.274h-8.058c-7.426 0-11.534-4.266-11.534-11.376v-36.218z"/><path d="m154.212 124.634c-4.74 0-7.426-2.844-7.426-7.426v-55.5h-17.786v14.378c-6.478-8.848-16.252-14.378-28.102-14.378-22.751 0-39.748 16.298-39.748 40.314s17.098 39.686 39.85 39.686c12.324 0 22.594-6.108 29.072-15.588 2.212 8.848 9.13 15.578 20.506 15.578h5.056v-17.064zm-49.736.01c-14.378 0-25.156-8.402-25.156-22.622s10.677-23.25 25.054-23.25c14.22 0 24.626 9.216 24.626 23.436s-10.304 22.436-24.524 22.436z"/><path d="m177.966 48.144c6.478 0 11.376-4.898 11.376-11.218 0-6.478-4.898-11.218-11.376-11.218-6.32 0-11.218 4.74-11.218 11.218 0 6.32 4.898 11.218 11.218 11.218zm-8.966 93.564h17.814v-79.976h-17.814z"/><path d="m232.796 141.708h7.426v-16.274h-4.898c-5.846 0-9.429-3.318-9.429-9.164v-87.864h-17.79v90.866c0 14.536 8.575 22.436 24.691 22.436z"/></g></g></svg>